# File created by Blade
# Date/Time:  Tue Jan 27 19:00:36 2015
# Frame Rate: 120.000 fps
#------------------------------------------------------
:FULLY-SPECIFIED
:DEGREES
3864
root -3.176259 31.435720 -4.007777 7.292504 -55.536886 -10.892941
Spine 5.548882 13.678011 -0.737404
Head 20.354098 34.074691 1.778453
LeftShoulder -23.735588 21.818642 9.529728
LeftArm -9.263351 -49.639052 -70.841979
LeftForeArm -8.709150 -0.000000 109.932710
LeftHand -16.626181 -0.000000 33.461541
LeftHandThumb1 -26.253704 0.000000 33.147579
RightShoulder -2.180356 8.603157 -5.251811
RightArm 22.892713 -42.607914 72.429411
RightForeArm -26.358876 -0.000000 32.858069
RightHand -13.211921 -0.000000 8.711511
RightHandThumb1 -24.326973 -0.000000 -32.862282
LeftUpLeg -3.557656 17.526846 -6.093769
LeftLeg 17.815945 -0.000000 -0.000000
LeftFoot -34.502349 38.189058 -19.403026
LeftToeBase 11.972300 -0.000000 -0.000000
RightUpLeg -62.101333 -66.593449 26.446156
RightLeg 86.374975 -0.000000 -0.000000
RightFoot -36.884718 -29.294697 22.958286
RightToeBase -0.588591 -0.000000 0.000000
3865
root -3.181972 31.443664 -4.011478 7.314497 -55.308225 -10.889521
Spine 5.525347 13.587691 -0.732786
Head 20.218386 34.036472 1.785953
LeftShoulder -23.709878 21.795972 9.581602
LeftArm -9.058949 -49.514241 -71.050169
LeftForeArm -8.589134 -0.000000 109.979220
LeftHand -16.491647 -0.000000 33.095992
LeftHandThumb1 -26.253704 0.000000 33.147579
RightShoulder -2.240095 8.563586 -5.239003
RightArm 22.836929 -42.589394 72.385305
RightForeArm -26.362797 -0.000000 32.811943
RightHand -13.144183 0.000000 8.754498
RightHandThumb1 -24.326973 -0.000000 -32.862282
LeftUpLeg -3.505683 17.470871 -6.054862
LeftLeg 17.640381 -0.000000 -0.000000
LeftFoot -34.297513 38.165004 -19.168554
LeftToeBase 11.928459 -0.000000 -0.000000
RightUpLeg -61.792715 -66.666089 26.209758
RightLeg 86.092814 -0.000000 -0.000000
RightFoot -36.834623 -29.314781 22.979158
RightToeBase -0.765266 -0.000000 0.000000
3866
root -3.184027 31.451743 -4.016449 7.385331 -55.064195 -10.917507
Spine 5.495022 13.488564 -0.691315
Head 20.069807 34.006579 1.762064
LeftShoulder -23.703701 21.760214 9.602507
LeftArm -8.834847 -49.393725 -71.270785
LeftForeArm -8.462544 -0.000000 110.027291
LeftHand -16.503806 -0.000000 33.036627
LeftHandThumb1 -26.253704 0.000000 33.147579
RightShoulder -2.284317 8.515701 -5.248655
RightArm 22.794190 -42.557113 72.338123
RightForeArm -26.270038 -0.000000 32.741300
RightHand -13.196525 -0.000000 9.019685
RightHandThumb1 -24.326973 -0.000000 -32.862282
LeftUpLeg -3.497374 17.373806 -6.006377
LeftLeg 17.497364 -0.000000 -0.000000
LeftFoot -34.103909 38.151481 -18.932873
LeftToeBase 11.879446 -0.000000 -0.000000
RightUpLeg -61.643736 -66.757387 26.173415
RightLeg 85.767405 -0.000000 -0.000000
RightFoot -36.783623 -29.495907 22.856717
RightToeBase -0.769150 -0.000000 0.000000
3867
root -3.183492 31.459689 -4.022396 7.468691 -54.828878 -10.950197
Spine 5.466710 13.422324 -0.648463
Head 19.903470 33.983378 1.745155
LeftShoulder -23.679835 21.685803 9.641706
LeftArm -8.653485 -49.300935 -71.480413
LeftForeArm -8.427182 -0.000000 110.085854
LeftHand -16.572418 -0.000000 33.339070
LeftHandThumb1 -26.253704 0.000000 33.147579
RightShoulder -2.311394 8.472866 -5.254637
RightArm 22.736733 -42.478025 72.309492
RightForeArm -26.271875 -0.000000 32.608496
RightHand -13.254550 0.000000 8.938564
RightHandThumb1 -24.326973 -0.000000 -32.862282
LeftUpLeg -3.506152 17.267756 -5.960038
LeftLeg 17.361143 -0.000000 -0.000000
LeftFoot -33.909469 38.167206 -18.693159
LeftToeBase 11.825219 -0.000000 -0.000000
RightUpLeg -61.553511 -66.840585 26.190239
RightLeg 85.469380 -0.000000 -0.000000
RightFoot -36.778714 -29.411861 22.861163
RightToeBase -0.647005 -0.000000 0.000000
3868
root -3.184311 31.467601 -4.028903 7.573641 -54.592850 -11.005319
Spine 5.433365 13.363295 -0.595210
Head 19.729777 33.945055 1.742430
LeftShoulder -23.657299 21.627686 9.672939
LeftArm -8.469479 -49.225135 -71.712972
LeftForeArm -8.333503 0.000000 110.153418
LeftHand -16.593537 -0.000000 33.383739
LeftHandThumb1 -26.253704 0.000000 33.147579
RightShoulder -2.319111 8.456757 -5.262202
RightArm 22.639737 -42.421798 72.300695
RightForeArm -26.203967 -0.000000 32.450124
RightHand -13.233380 -0.000000 9.057778
RightHandThumb1 -24.326973 -0.000000 -32.862282
LeftUpLeg -3.523322 17.176713 -5.898108
LeftLeg 17.242412 -0.000000 -0.000000
LeftFoot -33.734374 38.149281 -18.458230
LeftToeBase 11.831227 -0.000000 -0.000000
RightUpLeg -61.526587 -66.938433 26.300209
RightLeg 85.143453 -0.000000 -0.000000
RightFoot -36.754943 -29.341462 22.889515
RightToeBase -0.805148 -0.000000 0.000000
3869
root -3.188361 31.476120 -4.033228 7.658751 -54.381392 -11.051220
Spine 5.400294 13.341532 -0.551949
Head 19.577413 33.895987 1.769282
LeftShoulder -23.629413 21.606888 9.689036
LeftArm -8.247909 -49.179237 -71.984688
LeftForeArm -8.246921 -0.000000 110.226818
LeftHand -16.573697 -0.000000 33.404145
LeftHandThumb1 -26.253704 0.000000 33.147579
RightShoulder -2.330870 8.420942 -5.250905
RightArm 22.558024 -42.350517 72.283609
RightForeArm -26.233447 -0.000000 32.252645
RightHand -13.276847 -0.000000 9.138720
RightHandThumb1 -24.326973 -0.000000 -32.862282
LeftUpLeg -3.519678 17.100670 -5.836970
LeftLeg 17.125542 -0.000000 -0.000000
LeftFoot -33.595137 38.090824 -18.295235
LeftToeBase 11.786620 -0.000000 -0.000000
RightUpLeg -61.426924 -67.017362 26.337667
RightLeg 84.822228 -0.000000 -0.000000
RightFoot -36.638079 -29.286639 22.824029
RightToeBase -0.984012 -0.000000 0.000000
3870
root -3.188635 31.483112 -4.039955 7.774073 -54.197099 -11.104604
Spine 5.353927 13.351473 -0.512874
Head 19.404663 33.829595 1.764492
LeftShoulder -23.602816 21.543692 9.730534
LeftArm -8.070007 -49.153487 -72.234925
LeftForeArm -8.191931 -0.000000 110.289430
LeftHand -16.536115 -0.000000 33.364820
LeftHandThumb1 -26.253704 0.000000 33.147579
RightShoulder -2.339142 8.389433 -5.250252
RightArm 22.490824 -42.282919 72.261441
RightForeArm -26.289970 -0.000000 32.031422
RightHand -13.316463 -0.000000 9.170499
RightHandThumb1 -24.326973 -0.000000 -32.862282
LeftUpLeg -3.571840 17.037601 -5.787739
LeftLeg 17.051150 -0.000000 -0.000000
LeftFoot -33.462254 38.050905 -18.136952
LeftToeBase 11.756881 -0.000000 -0.000000
RightUpLeg -61.356924 -67.031431 26.410768
RightLeg 84.482633 -0.000000 -0.000000
RightFoot -36.498152 -29.247872 22.743023
RightToeBase -1.152168 -0.000000 0.000000
3871
root -3.186495 31.489328 -4.045652 7.862423 -54.009497 -11.131071
Spine 5.329659 13.372009 -0.477950
Head 19.196301 33.756462 1.724080
LeftShoulder -23.567623 21.443990 9.771825
LeftArm -7.927249 -49.121349 -72.441759
LeftForeArm -8.140778 0.000000 110.343804
LeftHand -16.511112 -0.000000 33.355034
LeftHandThumb1 -26.253704 0.000000 33.147579
RightShoulder -2.341966 8.348605 -5.272042
RightArm 22.457308 -42.245994 72.216368
RightForeArm -26.251481 -0.000000 31.797034
RightHand -13.295798 -0.000000 9.083610
RightHandThumb1 -24.326973 -0.000000 -32.862282
LeftUpLeg -3.605292 16.939367 -5.758800
LeftLeg 16.946567 -0.000000 -0.000000
LeftFoot -33.279885 38.025725 -17.920036
LeftToeBase 11.675295 -0.000000 -0.000000
RightUpLeg -61.305720 -67.050915 26.480065
RightLeg 84.133677 -0.000000 -0.000000
RightFoot -36.513721 -29.140691 22.838879
RightToeBase -0.988865 -0.000000 0.000000
3872
root -3.182970 31.495039 -4.052246 7.957393 -53.829965 -11.161824
Spine 5.304451 13.404623 -0.439705
Head 18.997470 33.695939 1.696317
LeftShoulder -23.522458 21.333881 9.816504
LeftArm -7.830610 -49.067918 -72.630962
LeftForeArm -8.019261 -0.000000 110.423411
LeftHand -16.421060 -0.000000 32.922683
LeftHandThumb1 -26.253704 0.000000 33.147579
RightShoulder -2.329674 8.339177 -5.286804
RightArm 22.425748 -42.217595 72.156096
RightForeArm -26.286641 -0.000000 31.507798
RightHand -13.342313 0.000000 9.157606
RightHandThumb1 -24.326973 -0.000000 -32.862282
LeftUpLeg -3.655844 16.825721 -5.731950
LeftLeg 16.856832 -0.000000 -0.000000
LeftFoot -33.187156 38.047698 -17.810743
LeftToeBase 11.681414 -0.000000 -0.000000
RightUpLeg -61.235396 -67.039014 26.541518
RightLeg 83.772184 -0.000000 -0.000000
RightFoot -36.516972 -29.095756 22.942933
RightToeBase -1.060935 -0.000000 0.000000
3873
root -3.181643 31.500781 -4.057444 8.040193 -53.657674 -11.188497
Spine 5.283749 13.444313 -0.410132
Head 18.799455 33.638595 1.694691
LeftShoulder -23.493936 21.253625 9.856799
LeftArm -7.701052 -49.043888 -72.822773
LeftForeArm -8.048430 -0.000000 110.480193
LeftHand -16.487123 -0.000000 33.299931
LeftHandThumb1 -26.253704 0.000000 33.147579
RightShoulder -2.341823 8.331539 -5.295869
RightArm 22.413345 -42.216563 72.099346
RightForeArm -26.363078 -0.000000 31.228294
RightHand -13.441027 -0.000000 9.329108
RightHandThumb1 -24.326973 -0.000000 -32.862282
LeftUpLeg -3.684717 16.678784 -5.698501
LeftLeg 16.742144 -0.000000 -0.000000
LeftFoot -33.049944 38.220661 -17.623261
LeftToeBase 11.332879 -0.000000 -0.000000
RightUpLeg -61.121192 -67.017991 26.568220
RightLeg 83.385464 -0.000000 -0.000000
RightFoot -36.574058 -29.028725 23.148496
RightToeBase -1.175103 -0.000000 0.000000
3874
root -3.177961 31.505747 -4.062233 8.136357 -53.502987 -11.201517
Spine 5.242116 13.496852 -0.384414
Head 18.600788 33.612017 1.692440
LeftShoulder -23.478150 21.235864 9.839690
LeftArm -7.502681 -49.048704 -73.032568
LeftForeArm -8.101923 -0.000000 110.530439
LeftHand -16.522962 0.000000 33.533881
LeftHandThumb1 -26.253704 0.000000 33.147579
RightShoulder -2.336567 8.336075 -5.321497
RightArm 22.408054 -42.237086 72.043858
RightForeArm -26.418894 -0.000000 30.881225
RightHand -13.359736 -0.000000 9.330394
RightHandThumb1 -24.326973 -0.000000 -32.862282
LeftUpLeg -3.738302 16.510818 -5.700833
LeftLeg 16.622961 -0.000000 -0.000000
LeftFoot -32.913160 38.342193 -17.445042
LeftToeBase 11.313042 -0.000000 -0.000000
RightUpLeg -61.091666 -66.988102 26.660914
RightLeg 83.006569 -0.000000 -0.000000
RightFoot -36.563735 -29.077686 23.221806
RightToeBase -1.212760 -0.000000 0.000000
3875
root -3.170693 31.510429 -4.067263 8.219190 -53.342386 -11.197783
Spine 5.215114 13.518133 -0.360722
Head 18.359511 33.586974 1.636026
LeftShoulder -23.399799 21.102596 9.877442
LeftArm -7.619932 -49.060542 -73.021721
LeftForeArm -8.179102 -0.000000 110.596476
LeftHand -16.427649 -0.000000 33.208157
LeftHandThumb1 -26.253704 0.000000 33.147579
RightShoulder -2.300972 8.353054 -5.360568
RightArm 22.408469 -42.276194 71.991709
RightForeArm -26.336331 -0.000000 30.552712
RightHand -13.388213 -0.000000 9.336772
RightHandThumb1 -24.326973 -0.000000 -32.862282
LeftUpLeg -3.806082 16.318382 -5.728360
LeftLeg 16.530646 -0.000000 -0.000000
LeftFoot -32.747270 38.333227 -17.276537
LeftToeBase 11.583865 -0.000000 -0.000000
RightUpLeg -61.025749 -66.941078 26.718820
RightLeg 82.615771 -0.000000 -0.000000
RightFoot -36.551633 -29.122730 23.237692
RightToeBase -1.256456 -0.000000 0.000000
3876
root -3.169978 31.514719 -4.068715 8.241699 -53.217018 -11.195242
Spine 5.249259 13.571580 -0.342085
Head 18.105070 33.585597 1.610027
LeftShoulder -23.353730 21.032618 9.885227
LeftArm -7.643128 -49.043248 -73.057083
LeftForeArm -8.247637 -0.000000 110.686302
LeftHand -16.408749 -0.000000 33.442773
LeftHandThumb1 -26.253704 0.000000 33.147579
RightShoulder -2.289335 8.422842 -5.374242
RightArm 22.357877 -42.350324 71.965801
RightForeArm -26.385605 -0.000000 30.228028
RightHand -13.449942 0.000000 9.287735
RightHandThumb1 -24.326973 -0.000000 -32.862282
LeftUpLeg -3.779753 16.178613 -5.727888
LeftLeg 16.389573 -0.000000 -0.000000
LeftFoot -32.584152 38.449354 -17.064121
LeftToeBase 11.620494 -0.000000 -0.000000
RightUpLeg -60.805502 -66.919079 26.639920
RightLeg 82.216895 -0.000000 -0.000000
RightFoot -36.598078 -29.121386 23.399920
RightToeBase -1.333039 -0.000000 0.000000
